<svg xmlns="http://www.w3.org/2000/svg" width="95" height="50" viewBox="0 0 95 50">
    <g fill="#FFF" fill-rule="nonzero">
        <path d="M3.762 18.931c0 2.273.355 3.122.852 3.291.497.17.313.212.71.212.277 0 .426.06.426.238s-.227.297-.575.297c-1.619 0-2.023-.094-2.499-.094-.22 0-.809.094-2.13.094-.319 0-.546 0-.546-.297s.15-.238.398-.238c.248 0 .191 0 .532-.144.703-.237.774-1.086.802-3.69l.22-17.59c0-.594.071-1.01.32-1.01.248 0 .497.39.922.916.299.39 4.075 5.233 7.71 9.534 1.69 2.018 5.04 6.301 5.466 6.785h.128l-.256-13.342c0-1.815-.248-2.375-.845-2.672a1.18 1.18 0 0 0-.71-.178c-.298 0-.397-.093-.397-.271 0-.178.277-.263.646-.263 1.292 0 1.902.093 2.428.093.248 0 .71-.093 1.945-.093.326 0 .575 0 .575.263s-.156.186-.448.271l-.276.085c-.71.238-.895.848-.916 2.545l-.284 18.736c0 .653-.1.924-.327.924a1.623 1.623 0 0 1-.844-.653c-1.562-1.79-4.742-5.716-7.348-8.744-2.704-3.207-5.466-6.922-5.913-7.49h-.057M33.617 7.945c0-4.168 0-4.934-.051-5.81-.052-.876 0-1.369-.87-1.564a2.825 2.825 0 0 0-.739-.078c-.28 0-.442-.055-.442-.25 0-.196.184-.243.568-.243 1.372 0 2.515.086 3.187.086.67 0 1.858-.086 2.854-.086.362 0 .539.055.539.242 0 .188-.155.22-.465.25a2.383 2.383 0 0 0-.509.079c-.738.14-.782.602-.833 1.564-.052.962-.052 1.642-.052 5.81v5.068c0 1.18.081 2.495.081 3.863.05 1.642-.16 3.28-.62 4.849-.545 1.673-1.91 3.558-4.426 5.177-.417.262-.848.5-1.29.712a1.11 1.11 0 0 1-.517.164c-.114 0-.206-.098-.206-.22 0-.132.125-.242.568-.492a5.53 5.53 0 0 0 1.239-1.04c1.962-2.111 1.94-4.849 1.94-10.221M53.05 8.542c0-4.468 0-5.29-.062-6.228-.06-.94-.227-1.493-.873-1.677a2.558 2.558 0 0 0-.812-.109c-.306 0-.489-.059-.489-.293 0-.235.244-.235.733-.235 1.162 0 2.62.092 3.555.092.934 0 2.104-.067 3.265-.067.393 0 .638.059.638.235s-.183.293-.49.293c-.214.004-.428.032-.637.084-.82.151-.925.646-.986 1.677-.061 1.03-.061 1.76-.061 6.228v5.172c0 2.85 0 5.172.122 6.43.096.787.305 1.324 1.222 1.433.324.07.655.11.987.117.332 0 .49.092.49.235 0 .142-.245.293-.577.293-2.017 0-3.37-.092-4.192-.092-.82 0-2.2.092-3.423.092-.402 0-.611-.092-.611-.293 0-.201.122-.235.489-.235.275.004.55-.036.812-.117.611-.118.646-.612.742-1.467.149-1.232.149-3.554.149-6.404"/>
        <path d="M80.061 21.973l-.58-.074c-.699-.116-.88-.751-.95-1.56-.119-1.237-.119-3.795-.119-6.46V2.029l3.081.083c2.18.058 2.837.825 2.886 1.65v.281c0 .43.077.578.273.578.195 0 .195-.174.216-.462 0-.751.07-2.748.07-3.35 0-.438 0-.611-.195-.611a5.291 5.291 0 0 0-.664.149 9.925 9.925 0 0 1-1.691.148h-9.664A20.64 20.64 0 0 1 70.28.347 5.023 5.023 0 0 1 69.23 0c-.147 0-.224.173-.294.545-.049.23-.517 2.863-.517 3.3 0 .437.05.462.224.462s.216-.115.272-.346c.09-.364.233-.707.42-1.015.37-.636.957-.825 2.375-.825l3.64-.116v11.874c0 2.656 0 5.289-.125 6.493-.077.825-.189 1.403-.699 1.593a4.3 4.3 0 0 1-1.069.124C32.897 23.26-.07 49.755 0 49.879c.034.06.087.102.148.116a.203.203 0 0 0 .174-.042c.265-.215 27.9-21.338 72.507-25.282 13.577-1.196 21.85-1.568 21.933-1.56.113.008.214-.083.238-.214 0-.115-3.228-.982-14.939-.916"/>
    </g>
</svg>
